<svg xmlns="http://www.w3.org/2000/svg"><symbol id="mecha-stilts" viewBox="0 0 191 219"><path d="M95.8 125.9h8.1v19.98h-8.1zm-52 0h48.4v19.98H43.8zm46.6-57c-23 1.4-42.3 18.1-47.9 39.9h19.3zm5.4-.2v40.1h49.7a53.6 53.6 0 0 0-49.7-40.1zm-3.6 40.1V72.5l-25.9 36.3h25.9zm15.3 17.1h36.7v19.98h-36.7z"/><path d="M94-.6L-.9 54.2v109.6L94 218.6l94.9-54.8V54.2zm77.6 126.5h-23.8v21.8a1.7 1.7 0 0 1-1.8 1.8H42a1.7 1.7 0 0 1-1.8-1.8v-21.8H16.4a1.8 1.8 0 1 1 0-3.6h13.5v-11.7a1.7 1.7 0 0 1 1.8-1.8h7a57.2 57.2 0 0 1 55.1-43.7c.2-.2.4-.2.7 0a57 57 0 0 1 54.8 43.7h7a1.7 1.7 0 0 1 1.8 1.8v11.7h13.5a1.8 1.8 0 1 1 0 3.6z"/><path d="M33.5 112.4h121v9.9h-121z"/></symbol><symbol id="super-dome" viewBox="0 0 191 219"><path d="M89.2 134.6h11.5v11.34H89.2zm36.8 0h11.5v11.34H126zm-21.6 0h18v11.34h-18zm-36.8 0h18v11.34h-18zM41.7 131h106.6V99.1H41.7zm52.4-12.3H138a1.8 1.8 0 1 1 0 3.6H94.1a1.8 1.8 0 0 1 0-3.6zm.9-59.2c-21.1 0-38.7 12.8-39.6 36h79.2c-.9-23.2-18.5-36-39.6-36z"/><path d="M95-.6L.1 54.2v109.6L95 218.6l94.9-54.8V54.2zm56.9 133.4a1.7 1.7 0 0 1-1.8 1.8h-9v11.3h9a1.8 1.8 0 1 1 0 3.6H39.9a1.8 1.8 0 1 1 0-3.6h9v-11.3h-9a1.7 1.7 0 0 1-1.8-1.8V97.3a1.7 1.7 0 0 1 1.8-1.8h11.9c.9-25.6 20-39.6 43.2-39.6s42.3 14 43.2 39.6h11.9a1.7 1.7 0 0 1 1.8 1.8z"/><path d="M52.5 134.6H64v11.34H52.5z"/></symbol><symbol id="space-bubble" viewBox="0 0 191 219"><path d="M60.4 145.9h24.4l-7.3-9-17.1 9zm9.3-18.2H57.8L42 146.4l2.5 3.6 30.4-16-5.2-6.3z"/><path d="M96-.6L1.1 54.2v109.6L96 218.6l94.9-54.8V54.2zm57.6 148.1l-4.1 6a2 2 0 0 1-2.4.5l-8.6-4.5H53.3l-8.6 4.5a1.9 1.9 0 0 1-2.3-.5l-4.2-6a2 2 0 0 1 .2-2.1l14.9-17.7H46a1.7 1.7 0 0 1-1.8-1.8V113a1.7 1.7 0 0 1 1.8-1.8h10.4a49.4 49.4 0 0 1-2-13.7 42.6 42.6 0 0 1 85.2 0 45.9 45.9 0 0 1-2 13.7H148a1.7 1.7 0 0 1 1.8 1.8v12.9a1.7 1.7 0 0 1-1.8 1.8h-9.2l14.8 17.7a1.8 1.8 0 0 1 0 2.1z"/><path d="M74.4 127.7l15.1 18.2h13l15.1-18.2H74.4zm-26.6-12.9h98.5v9.36H47.8zm86-3.6a45.2 45.2 0 0 0 2.2-13.7 39 39 0 0 0-78 0c0 4.7.4 9.5 2.2 13.7zm-26.6 34.7h24.4l-17.1-9-7.3 9zm15.1-18.2l-5.4 6.3 30.6 16 2.5-3.4-15.8-18.9h-11.9z"/></symbol></svg>