<svg xmlns="http://www.w3.org/2000/svg" width="191" height="219" viewBox="0 0 191 219"><path d="M95.8 125.9h8.1v19.98h-8.1zm-52 0h48.4v19.98H43.8zm46.6-57c-23 1.4-42.3 18.1-47.9 39.9h19.3zm5.4-.2v40.1h49.7a53.6 53.6 0 0 0-49.7-40.1zm-3.6 40.1V72.5l-25.9 36.3h25.9zm15.3 17.1h36.7v19.98h-36.7z"/><path d="M94-.6L-.9 54.2v109.6L94 218.6l94.9-54.8V54.2zm77.6 126.5h-23.8v21.8a1.7 1.7 0 0 1-1.8 1.8H42a1.7 1.7 0 0 1-1.8-1.8v-21.8H16.4a1.8 1.8 0 1 1 0-3.6h13.5v-11.7a1.7 1.7 0 0 1 1.8-1.8h7a57.2 57.2 0 0 1 55.1-43.7c.2-.2.4-.2.7 0a57 57 0 0 1 54.8 43.7h7a1.7 1.7 0 0 1 1.8 1.8v11.7h13.5a1.8 1.8 0 1 1 0 3.6z"/><path d="M33.5 112.4h121v9.9h-121z"/></svg>