<svg xmlns="http://www.w3.org/2000/svg" width="191" height="219" viewBox="0 0 191 219"><path d="M60.4 145.9h24.4l-7.3-9-17.1 9zm9.3-18.2H57.8L42 146.4l2.5 3.6 30.4-16-5.2-6.3z"/><path d="M96-.6L1.1 54.2v109.6L96 218.6l94.9-54.8V54.2zm57.6 148.1l-4.1 6a2 2 0 0 1-2.4.5l-8.6-4.5H53.3l-8.6 4.5a1.9 1.9 0 0 1-2.3-.5l-4.2-6a2 2 0 0 1 .2-2.1l14.9-17.7H46a1.7 1.7 0 0 1-1.8-1.8V113a1.7 1.7 0 0 1 1.8-1.8h10.4a49.4 49.4 0 0 1-2-13.7 42.6 42.6 0 0 1 85.2 0 45.9 45.9 0 0 1-2 13.7H148a1.7 1.7 0 0 1 1.8 1.8v12.9a1.7 1.7 0 0 1-1.8 1.8h-9.2l14.8 17.7a1.8 1.8 0 0 1 0 2.1z"/><path d="M74.4 127.7l15.1 18.2h13l15.1-18.2H74.4zm-26.6-12.9h98.5v9.36H47.8zm86-3.6a45.2 45.2 0 0 0 2.2-13.7 39 39 0 0 0-78 0c0 4.7.4 9.5 2.2 13.7zm-26.6 34.7h24.4l-17.1-9-7.3 9zm15.1-18.2l-5.4 6.3 30.6 16 2.5-3.4-15.8-18.9h-11.9z"/></svg>