<svg xmlns="http://www.w3.org/2000/svg" width="191" height="219" viewBox="0 0 191 219"><path d="M89.2 134.6h11.5v11.34H89.2zm36.8 0h11.5v11.34H126zm-21.6 0h18v11.34h-18zm-36.8 0h18v11.34h-18zM41.7 131h106.6V99.1H41.7zm52.4-12.3H138a1.8 1.8 0 1 1 0 3.6H94.1a1.8 1.8 0 0 1 0-3.6zm.9-59.2c-21.1 0-38.7 12.8-39.6 36h79.2c-.9-23.2-18.5-36-39.6-36z"/><path d="M95-.6L.1 54.2v109.6L95 218.6l94.9-54.8V54.2zm56.9 133.4a1.7 1.7 0 0 1-1.8 1.8h-9v11.3h9a1.8 1.8 0 1 1 0 3.6H39.9a1.8 1.8 0 1 1 0-3.6h9v-11.3h-9a1.7 1.7 0 0 1-1.8-1.8V97.3a1.7 1.7 0 0 1 1.8-1.8h11.9c.9-25.6 20-39.6 43.2-39.6s42.3 14 43.2 39.6h11.9a1.7 1.7 0 0 1 1.8 1.8z"/><path d="M52.5 134.6H64v11.34H52.5z"/></svg>